# xmcd CD database file
#
# Track frame offsets:
#	150
#	6826
#	20019
#
# Disc length: 432 seconds
#
# Revision: 1
# Processed by: cddbd v1.4PL0 Copyright (c) Steve Scherf et al.
# Submitted via: CDex 1.40Beta8
#
DISCID=1a01ae03
DTITLE=Richmond football Club - Richmond Football Club Song
DYEAR=1999
DGENRE=Blues
TTITLE0=Richmond Football Club Song - The Fable Singers
TTITLE1=One Day in September - Mike Brady
TTITLE2=Up there Cazaly - The Two Man Band
EXTD=YEAR: 1999 ID3G: 0
EXTT0=
EXTT1=
EXTT2=
PLAYORDER=
